<svg xmlns="http://www.w3.org/2000/svg" viewBox="0 0 1280 720" role="img" aria-labelledby="title desc">
  <title id="title">Bloomberg TV US live channel artwork</title>
  <desc id="desc">A Bloomberg TV US branded live channel slate.</desc>
  <defs>
    <linearGradient id="bg" x1="0" x2="1" y1="0" y2="1">
      <stop offset="0" stop-color="#101214"/>
      <stop offset="0.52" stop-color="#182337"/>
      <stop offset="1" stop-color="#0a0a0b"/>
    </linearGradient>
    <linearGradient id="signal" x1="0" x2="1" y1="0" y2="0">
      <stop offset="0" stop-color="#f5b642"/>
      <stop offset="0.46" stop-color="#45a3ff"/>
      <stop offset="1" stop-color="#e50914"/>
    </linearGradient>
  </defs>
  <rect width="1280" height="720" fill="url(#bg)"/>
  <rect x="0" y="0" width="1280" height="720" fill="#000" opacity="0.18"/>
  <path d="M0 530c150-78 282-92 450-40 148 46 284 50 432 5 166-50 276-42 398 31v194H0Z" fill="#050607" opacity="0.72"/>
  <rect x="78" y="78" width="154" height="54" rx="27" fill="#e50914"/>
  <text x="155" y="114" text-anchor="middle" font-family="Helvetica Neue, Arial, sans-serif" font-size="30" font-weight="700" fill="#fff">LIVE</text>
  <circle cx="1070" cy="150" r="110" fill="#45a3ff" opacity="0.12"/>
  <circle cx="1070" cy="150" r="64" fill="#45a3ff" opacity="0.18"/>
  <circle cx="1070" cy="150" r="18" fill="#45a3ff"/>
  <g font-family="Helvetica Neue, Arial, sans-serif" fill="#fff">
    <text x="82" y="332" font-size="96" font-weight="800" letter-spacing="0">Bloomberg</text>
    <text x="86" y="420" font-size="66" font-weight="700" letter-spacing="1">TV US</text>
    <text x="88" y="482" font-size="30" font-weight="500" fill="#d7dbe3">Markets, business and global news</text>
  </g>
  <rect x="82" y="560" width="710" height="10" rx="5" fill="url(#signal)"/>
  <g fill="#fff" opacity="0.38">
    <rect x="910" y="474" width="42" height="150" rx="8"/>
    <rect x="976" y="418" width="42" height="206" rx="8"/>
    <rect x="1042" y="360" width="42" height="264" rx="8"/>
    <rect x="1108" y="506" width="42" height="118" rx="8"/>
  </g>
</svg>
