<svg xmlns="http://www.w3.org/2000/svg"
     viewBox="492.908 53.282 95.982 79.688"
     width="95.982" height="79.688" fill="none">
  <path fill="#F6F6F6" opacity="1.000000" d=" M535.638062,125.329895   C533.275879,124.795868 530.968872,124.367851 529.248474,123.126717   C526.983704,121.492928 524.988098,119.375931 523.214233,117.192513   C517.840088,110.577560 511.789520,106.008057 502.476593,107.732979   C498.799500,108.414040 496.736359,106.318253 496.919434,102.106812   C497.186493,95.962288 497.073547,89.795914 496.956848,83.641991   C496.884003,79.802933 498.926514,77.603760 502.362366,78.269646   C511.691071,80.077606 517.704590,75.427376 523.141785,68.895515   C525.261841,66.348640 527.649414,63.957420 530.232300,61.891911   C531.468567,60.903225 533.614441,60.198608 535.027161,60.574074   C536.023254,60.838840 537.075562,63.133839 537.085510,64.529655   C537.220703,83.496162 537.200439,102.464027 537.126587,121.431198   C537.121887,122.647011 536.362488,123.859886 535.638062,125.329895  M520.536987,103.843681   C523.369873,106.791954 526.202759,109.740234 529.747681,113.429558   C529.747681,99.402458 529.747681,86.595001 529.747681,73.072655   C522.209534,79.898285 516.831665,89.864594 504.475769,85.233269   C504.475769,90.817688 504.475769,95.371407 504.475769,99.745522   C509.790283,101.384422 515.950867,97.652519 520.536987,103.843681  z"/>
  <path fill="#F1F1F1" opacity="1.000000" d=" M577.441711,89.248207   C575.894714,77.979324 573.996765,73.784477 565.106201,61.752563   C566.479980,60.305809 567.918396,58.791016 569.351501,57.281849   C588.028381,71.480385 591.936584,109.034088 569.566956,128.969925   C568.239197,127.353630 566.893188,125.715065 565.328003,123.809700   C573.661438,114.379509 578.369263,103.039612 577.441711,89.248207  z"/>
  <path fill="#F1F1F1" opacity="1.000000" d=" M565.904907,110.816330   C563.759827,113.756882 561.746338,116.352676 559.999084,118.605278   C557.978455,116.942719 556.185181,115.467209 554.432495,114.025108   C565.687805,100.074615 565.764526,86.205467 554.339050,71.892487   C556.069519,70.625237 557.896851,69.286987 559.769592,67.915520   C570.682556,76.604988 573.482727,94.725952 565.904907,110.816330  z"/>
  <path fill="#EFEFEF" opacity="1.000000" d=" M555.458374,95.508217   C553.751831,100.120529 552.130005,104.318977 549.922119,110.034729   C547.575439,106.803711 546.221619,104.939682 544.629395,102.747375   C549.520325,96.639046 549.691895,89.726067 544.181519,82.611275   C545.916260,81.161179 547.644226,79.716766 549.643982,78.045135   C553.988098,82.656380 556.078918,88.380234 555.458374,95.508217  z"/>
  <path fill="none" d=" M520.284607,103.572327   C515.950867,97.652519 509.790283,101.384422 504.475769,99.745522   C504.475769,95.371407 504.475769,90.817688 504.475769,85.233269   C516.831665,89.864594 522.209534,79.898285 529.747681,73.072655   C529.747681,86.595001 529.747681,99.402458 529.747681,113.429558   C526.202759,109.740234 523.369873,106.791954 520.284607,103.572327  z"/>
</svg>
