<svg xmlns="http://www.w3.org/2000/svg"
     viewBox="329.020 45.008 95.990 95.940"
     width="95.990" height="95.940" fill="none">
  <path fill="#F1F1F1" opacity="1.000000" d=" M400.319214,130.330475   C387.453156,137.709518 374.490356,138.982132 360.803162,133.819824   C339.389313,125.743332 327.703186,100.180725 335.388489,78.557823   C344.630951,52.553963 375.993744,40.573368 399.901947,55.571960   C400.565521,55.988255 401.356781,56.201038 402.344299,56.616283   C402.677551,50.677269 406.763336,53.433567 410.011841,52.663754   C410.011841,57.675446 410.393738,62.325005 409.801788,66.847084   C409.598419,68.400497 407.091217,70.600739 405.410980,70.826370   C401.159576,71.397324 396.780212,71.015800 392.129700,71.015800   C392.129700,68.677078 392.129700,66.461220 392.129700,64.067459   C393.806793,63.852512 395.513397,63.633785 397.526917,63.375725   C386.853699,54.035004 368.457550,54.304146 355.302795,63.676823   C341.767853,73.320374 336.838806,91.431740 343.335541,107.649681   C349.355957,122.678558 366.353760,131.652435 383.683990,128.951401   C400.118683,126.389946 412.096100,112.324272 413.758453,93.324097   C415.936523,93.324097 418.171112,93.324097 420.979248,93.324097   C420.544830,109.062271 413.617523,121.220154 400.319214,130.330475  z"/>
  <path fill="#EBEBEB" opacity="1.000000" d=" M374.441650,97.456131   C374.919830,93.707275 375.016296,90.130241 376.297638,87.045395   C377.800842,83.426559 381.249634,81.810600 385.243500,82.000618   C389.407898,82.198746 392.684174,84.113831 393.982727,88.144524   C394.824493,90.757347 395.181396,93.660355 395.093201,96.412102   C394.882019,103.001411 390.979828,107.401398 385.512665,107.774666   C379.843475,108.161720 376.075317,104.738243 374.441650,97.456131  M384.648010,102.543465   C388.423492,102.321762 389.248871,99.389305 389.008392,96.670654   C388.736359,93.595253 387.481018,90.575424 386.304382,87.672852   C386.213165,87.447876 382.750793,87.815033 381.918274,88.802849   C378.780823,92.525352 379.865967,99.034691 384.648010,102.543465  z"/>
  <path fill="#DDDDDD" opacity="1.000000" d=" M364.381958,92.282120   C363.532349,88.794151 363.532349,88.794151 359.278656,89.632530   C358.414917,84.315430 358.414917,84.315430 370.423767,82.389366   C370.423767,90.502762 370.423767,98.584068 370.423767,106.957832   C368.591400,106.957832 366.833954,106.957832 364.381134,106.957832   C364.381134,102.224785 364.381134,97.484566 364.381958,92.282120  z"/>
  <path fill="#F9F9F9" opacity="1.000000" d=" M408.048798,82.003464   C406.112793,82.002754 404.661224,82.002754 403.020508,82.002754   C403.020508,79.520882 403.020508,77.446663 403.020508,74.868378   C406.479889,74.868378 409.867249,74.868378 413.736511,74.868378   C413.736511,71.006958 413.736511,67.618942 413.736511,64.041054   C416.316956,64.041054 418.397461,64.041054 421.003326,64.041054   C421.003326,68.316345 420.979950,72.574394 421.010315,76.832047   C421.037018,80.579193 419.276886,82.276588 415.488892,82.030342   C413.179535,81.880226 410.852356,82.003632 408.048798,82.003464  z"/>
  <path fill="none" d=" M384.218323,102.481171   C379.865967,99.034691 378.780823,92.525352 381.918274,88.802849   C382.750793,87.815033 386.213165,87.447876 386.304382,87.672852   C387.481018,90.575424 388.736359,93.595253 389.008392,96.670654   C389.248871,99.389305 388.423492,102.321762 384.218323,102.481171  z"/>
</svg>
