<svg xmlns="http://www.w3.org/2000/svg"
     viewBox="164.968 45.061 95.695 95.972"
     width="95.695" height="95.972" fill="none">
  <path fill="#F3F3F3" opacity="1.000000" d=" M245.379242,75.824890   C232.553848,52.329739 203.063202,53.008141 193.287247,63.273376   C195.017105,63.602905 196.526123,63.890369 197.987518,64.168762   C197.987518,66.489830 197.987518,68.612839 197.987518,71.010574   C193.483734,71.010574 189.180099,71.048660 184.877487,70.997849   C181.753754,70.960968 179.885422,69.635201 179.964981,66.174454   C180.063812,61.875439 179.988663,57.572426 179.988663,52.738937   C183.173645,53.629436 187.598816,50.171913 187.567810,56.690086   C211.799347,42.287743 233.795364,50.263206 246.227432,64.171631   C255.852295,74.939461 259.234467,97.126793 254.626038,107.144791   C249.057190,119.250595 241.787918,128.912720 229.224884,133.890579   C220.345917,137.408676 211.201233,138.000610 201.916031,135.521729   C182.640488,130.375702 169.746948,113.960930 169.046234,93.331467   C171.274002,93.331467 173.502792,93.331467 176.215668,93.331467   C176.886856,101.493881 178.900696,109.426727 184.482635,115.955849   C194.161911,127.277565 206.490906,131.909637 220.962723,128.656433   C234.880096,125.527878 244.280472,116.858566 247.976654,102.704552   C250.359787,93.578667 249.654617,84.700241 245.379242,75.824890  z"/>
  <path fill="#EAEAEA" opacity="1.000000" d=" M210.352509,93.320190   C210.939621,87.716095 213.118958,83.525894 218.487106,82.272484   C223.029175,81.211967 227.015564,82.654808 229.512070,86.944511   C232.278366,91.697792 231.660416,100.660576 228.357895,104.391991   C225.531845,107.585083 219.994095,108.786514 216.063263,106.495491   C211.276886,103.705818 210.135864,98.932968 210.352509,93.320190  M217.846512,88.525192   C217.294189,90.567322 216.330521,92.600182 216.284256,94.653717   C216.211716,97.874214 216.128418,102.011383 220.485580,102.294884   C225.200180,102.601639 224.910278,98.385201 225.113678,95.150291   C225.205643,93.687454 225.279770,92.046371 224.728561,90.756943   C223.565887,88.037193 221.944427,85.591507 217.846512,88.525192  z"/>
  <path fill="#E5E5E5" opacity="1.000000" d=" M200.408020,97.937218   C200.407867,94.818810 200.407867,92.180679 200.407867,88.964798   C198.408508,89.139969 196.730835,89.286949 195.048416,89.434357   C194.082016,84.593971 194.082016,84.593971 205.965851,82.374962   C205.965851,90.475121 205.965851,98.528954 205.965851,106.905624   C204.292755,106.905624 202.580872,106.905624 200.408188,106.905624   C200.408188,103.952736 200.408188,101.185112 200.408020,97.937218  z"/>
  <path fill="#F7F7F7" opacity="1.000000" d=" M168.997742,70.013107   C168.997757,67.750809 168.997757,65.969452 168.997757,64.010399   C171.500717,64.010399 173.575317,64.010399 176.154907,64.010399   C176.154907,67.501328 176.154907,70.889450 176.154907,74.589706   C179.895782,74.589706 183.157623,74.589706 186.794586,74.589706   C186.794586,77.107376 186.794586,79.301781 186.794586,82.003540   C182.651962,82.003540 178.390121,82.002296 174.128265,82.003929   C170.758499,82.005219 168.800186,80.629440 168.979279,76.953407   C169.083954,74.805092 168.997955,72.647476 168.997742,70.013107  z"/>
  <path fill="none" d=" M218.115143,88.234337   C221.944427,85.591507 223.565887,88.037193 224.728561,90.756943   C225.279770,92.046371 225.205643,93.687454 225.113678,95.150291   C224.910278,98.385201 225.200180,102.601639 220.485580,102.294884   C216.128418,102.011383 216.211716,97.874214 216.284256,94.653717   C216.330521,92.600182 217.294189,90.567322 218.115143,88.234337  z"/>
</svg>
