<svg xmlns="http://www.w3.org/2000/svg"
     viewBox="26.735 66.123 88.529 80.885"
     width="88.529" height="80.885" fill="none">
  <path fill="#F7F7F7" opacity="1.000000" d=" M59.945786,129.014572   C51.629379,129.014511 43.803108,128.941238 35.979210,129.045776   C32.159927,129.096802 30.714777,127.536118 30.750372,123.653709   C30.896898,107.671471 30.924471,91.685783 30.736166,75.704422   C30.686113,71.456520 32.472610,70.116699 36.352112,70.124763   C59.328411,70.172531 82.304916,70.174599 105.281204,70.123436   C109.336876,70.114403 111.318169,71.466118 111.262825,75.960892   C111.070129,91.609108 111.072929,107.262550 111.260826,122.910881   C111.315002,127.422722 109.811394,129.432938 105.201935,129.053406   C102.588890,128.838242 99.943611,129.014557 96.851990,129.014557   C96.851990,131.457626 97.113052,133.606674 96.784988,135.661697   C96.387398,138.152252 95.491989,140.563324 94.811996,143.008789   C92.442528,142.254578 89.884010,141.844269 87.745987,140.669006   C84.155319,138.695206 80.538162,136.573242 77.463158,133.902267   C72.439392,129.538574 66.768181,128.352905 59.945786,129.014572  M53.502724,77.845802   C48.416534,77.845802 43.330349,77.845802 38.337006,77.845802   C38.337006,92.815681 38.337006,107.193260 38.337006,121.819214   C48.124519,121.819214 57.596279,121.580643 67.044220,121.950485   C70.288086,122.077477 73.714928,123.263016 76.625763,124.789513   C80.747879,126.951210 84.469315,129.876953 89.160721,133.009476   C89.160721,128.705414 89.160721,125.477142 89.160721,121.730110   C94.319084,121.730110 99.041847,121.730110 103.688873,121.730110   C103.688873,106.801796 103.688873,92.405121 103.688873,77.845802   C87.092583,77.845802 70.797020,77.845802 53.502724,77.845802  z"/>
  <path fill="none" opacity="1.000000" d=" M54.002087,77.845802   C70.797020,77.845802 87.092583,77.845802 103.688873,77.845802   C103.688873,92.405121 103.688873,106.801796 103.688873,121.730110   C99.041847,121.730110 94.319084,121.730110 89.160721,121.730110   C89.160721,125.477142 89.160721,128.705414 89.160721,133.009476   C84.469315,129.876953 80.747879,126.951210 76.625763,124.789513   C73.714928,123.263016 70.288086,122.077477 67.044220,121.950485   C57.596279,121.580643 48.124519,121.819214 38.337006,121.819214   C38.337006,107.193260 38.337006,92.815681 38.337006,77.845802   C43.330349,77.845802 48.416534,77.845802 54.002087,77.845802  M60.475544,110.874016   C63.902977,110.874016 67.330414,110.874016 70.814575,110.874016   C70.814575,108.067787 70.814575,105.815033 70.814575,103.425781   C62.247242,103.425781 53.898926,103.425781 45.411362,103.425781   C45.411362,105.951782 45.411362,108.175552 45.411362,110.874016   C50.284172,110.874016 54.884689,110.874016 60.475544,110.874016  M96.832016,92.460342   C96.174103,91.254410 95.548393,89.021454 94.853355,88.999664   C86.957954,88.752121 79.051956,88.842537 71.258942,88.842537   C71.258942,91.568672 71.258942,93.647575 71.258942,95.999290   C78.967346,95.999290 86.423370,96.097939 93.870346,95.883141   C94.880592,95.854012 95.845535,94.254333 96.832016,92.460342  M94.120888,103.116196   C88.884041,103.116196 83.647194,103.116196 78.447556,103.116196   C78.447556,106.045044 78.447556,108.271889 78.447556,110.604546   C84.657646,110.604546 90.532623,110.604546 97.730667,110.604546   C96.684425,107.700920 95.860962,105.415573 94.120888,103.116196  M61.206261,96.007454   C66.673523,95.262451 62.550541,91.464630 63.915905,89.210785   C57.333160,89.210785 51.311779,89.210785 45.495201,89.210785   C45.495201,91.671997 45.495201,93.737427 45.495201,96.008072   C50.641266,96.008072 55.450466,96.008072 61.206261,96.007454  z"/>
  <path fill="#EDEDED" opacity="1.000000" d=" M59.980373,110.874016   C54.884689,110.874016 50.284172,110.874016 45.411362,110.874016   C45.411362,108.175552 45.411362,105.951782 45.411362,103.425781   C53.898926,103.425781 62.247242,103.425781 70.814575,103.425781   C70.814575,105.815033 70.814575,108.067787 70.814575,110.874016   C67.330414,110.874016 63.902977,110.874016 59.980373,110.874016  z"/>
  <path fill="#FDFDFD" opacity="1.000000" d=" M96.831734,92.921097   C95.845535,94.254333 94.880592,95.854012 93.870346,95.883141   C86.423370,96.097939 78.967346,95.999290 71.258942,95.999290   C71.258942,93.647575 71.258942,91.568672 71.258942,88.842537   C79.051956,88.842537 86.957954,88.752121 94.853355,88.999664   C95.548393,89.021454 96.174103,91.254410 96.831734,92.921097  z"/>
  <path fill="#E8E8E8" opacity="1.000000" d=" M94.579193,103.123215   C95.860962,105.415573 96.684425,107.700920 97.730667,110.604546   C90.532623,110.604546 84.657646,110.604546 78.447556,110.604546   C78.447556,108.271889 78.447556,106.045044 78.447556,103.116196   C83.647194,103.116196 88.884041,103.116196 94.579193,103.123215  z"/>
  <path fill="#F8F8F8" opacity="1.000000" d=" M60.732964,96.007767   C55.450466,96.008072 50.641266,96.008072 45.495201,96.008072   C45.495201,93.737427 45.495201,91.671997 45.495201,89.210785   C51.311779,89.210785 57.333160,89.210785 63.915905,89.210785   C62.550541,91.464630 66.673523,95.262451 60.732964,96.007767  z"/>
</svg>
